<svg width="107" height="97" viewBox="0 0 107 97" fill="none" xmlns="http://www.w3.org/2000/svg">
<path d="M106.861 67.2187L85.5492 27.7453H29.1367L22.25 10.2598L30.4774 5.73545C30.4774 5.8083 30.4188 5.87387 30.3968 5.94673C30.1192 6.9721 30.0481 8.04192 30.1877 9.09469C30.3273 10.1475 30.6747 11.1624 31.21 12.0812L37.4374 22.9659L51.5039 14.8935L45.2106 4.02333C44.1903 2.25652 42.5317 0.942453 40.572 0.348327C38.6123 -0.245798 36.4986 -0.0753731 34.6607 0.824947L34.2944 1.02894C34.2381 1.0471 34.184 1.07154 34.1332 1.1018C34.0974 1.12105 34.0631 1.14297 34.0306 1.16737L19.2828 9.23983L26.6091 27.7453H21.3488L0 67.2187V75.1673H7.26036V96.5506H16.6234V75.1673H90.238V96.5506H99.601V75.1673H106.861V67.2187ZM39.6792 2.49335C40.4163 2.685 41.1073 3.02166 41.7113 3.48341C42.3153 3.94517 42.8201 4.52266 43.1959 5.18174L48.3243 14.0192L38.2799 19.7894L33.1515 10.9447C32.391 9.63855 32.1776 8.0874 32.5573 6.62614C32.937 5.16488 33.8793 3.91073 35.1809 3.13448L35.386 3.0252C36.0309 2.65922 36.7423 2.42381 37.4792 2.33253C38.216 2.24125 38.9637 2.29591 39.6792 2.49335ZM22.7115 30.0548H84.1352L104.217 67.2114H2.60816L22.7115 30.0548ZM14.279 94.2192H9.5535V75.1673H14.279V94.2192ZM97.2859 94.2192H92.5604V75.1673H97.2712L97.2859 94.2192ZM104.546 72.8578H2.29313V69.5282H104.546V72.8578Z" fill="url(#paint0_linear_187_93)"/>
<path cx='56.7573' d="M35.5912 37.4861L22.9826 61.3247H83.8568L71.2483 37.4861H35.5912ZM26.7996 59.0151L36.9905 39.7957H69.8489L80.0178 59.0151H26.7996Z" fill="url(#paint1_linear_187_93)">
<animate
      attributeName="d" from="M35.5912 37.4861L22.9826 61.3247H83.8568L71.2483 37.4861H35.5912ZM26.7996 59.0151L36.9905 39.7957H69.8489L80.0178 59.0151H26.7996Z" to="M35.5912 37.4861L22.9826 61.3247H83.8568L71.2483 37.4861H35.5912ZM26.7996 59.0151L36.9905 39.7957H69.8489L80.0178 59.0151H26.7996Z"
      dur="2s" repeatCount="indefinite" />
</path>
<defs>
<linearGradient id="paint0_linear_187_93" x1="11.3924" y1="100.667" x2="84.7063" y2="26.9436" gradientUnits="userSpaceOnUse">
<stop stop-color="#3990CF"/>
<stop offset="0.2" stop-color="#46AACD"/>
<stop offset="0.38" stop-color="#4EB9CB"/>
<stop offset="0.52" stop-color="#51BFCB"/>
<stop offset="0.67" stop-color="#50BCCA"/>
<stop offset="0.78" stop-color="#4CB2C9"/>
<stop offset="0.89" stop-color="#45A1C6"/>
<stop offset="0.99" stop-color="#3B8AC1"/>
<stop offset="1" stop-color="#3A88C1"/>
</linearGradient>
<linearGradient id="paint1_linear_187_93" x1="35.3567" y1="73.6374" x2="71.2816" y2="37.5192" gradientUnits="userSpaceOnUse">
<stop stop-color="#3990CF"/>
<stop offset="0.2" stop-color="#46AACD"/>
<stop offset="0.38" stop-color="#4EB9CB"/>
<stop offset="0.52" stop-color="#51BFCB"/>
<stop offset="0.67" stop-color="#50BCCA"/>
<stop offset="0.78" stop-color="#4CB2C9"/>
<stop offset="0.89" stop-color="#45A1C6"/>
<stop offset="0.99" stop-color="#3B8AC1"/>
<stop offset="1" stop-color="#3A88C1"/>
</linearGradient>
</defs>
</svg>
